<svg version="1.1" viewBox="0.0 0.0 577.7769028871392 433.3333333333333" fill="none" stroke="none" stroke-linecap="square" stroke-miterlimit="10" xmlns:xlink="http://www.w3.org/1999/xlink" xmlns="http://www.w3.org/2000/svg"><clipPath id="p.0"><path d="m0 0l577.7769 0l0 433.33334l-577.7769 0l0 -433.33334z" clip-rule="nonzero"/></clipPath><g clip-path="url(#p.0)"><path fill="#000000" fill-opacity="0.0" d="m0 0l577.7769 0l0 433.33334l-577.7769 0z" fill-rule="evenodd"/><path fill="#cfe2f3" d="m102.573494 285.97113l0 0c0 -32.110794 26.030937 -58.14174 58.14173 -58.14174l0 0c15.420151 0 30.208725 6.125641 41.11241 17.029327c10.903687 10.903687 17.029312 25.692276 17.029312 41.11241l0 0c0 32.11078 -26.03093 58.141724 -58.141724 58.141724l0 0c-32.110794 0 -58.14173 -26.030945 -58.14173 -58.141724z" fill-rule="evenodd"/><path stroke="#000000" stroke-width="1.0" stroke-linejoin="round" stroke-linecap="butt" d="m102.573494 285.97113l0 0c0 -32.110794 26.030937 -58.14174 58.14173 -58.14174l0 0c15.420151 0 30.208725 6.125641 41.11241 17.029327c10.903687 10.903687 17.029312 25.692276 17.029312 41.11241l0 0c0 32.11078 -26.03093 58.141724 -58.141724 58.141724l0 0c-32.110794 0 -58.14173 -26.030945 -58.14173 -58.141724z" fill-rule="evenodd"/><path fill="#000000" d="m130.83534 276.11612l0 -1.21875l1.0625 0l0 1.21875l-1.0625 0zm0 7.375l0 -6.21875l1.0625 0l0 6.21875l-1.0625 0zm2.6660156 0l0 -6.21875l0.9375 0l0 0.875q0.6875 -1.015625 1.984375 -1.015625q0.5625 0 1.03125 0.203125q0.484375 0.203125 0.71875 0.53125q0.234375 0.328125 0.328125 0.765625q0.046875 0.296875 0.046875 1.03125l0 3.828125l-1.046875 0l0 -3.78125q0 -0.65625 -0.125 -0.96875q-0.125 -0.3125 -0.4375 -0.5q-0.3125 -0.203125 -0.734375 -0.203125q-0.671875 0 -1.171875 0.4375q-0.484375 0.421875 -0.484375 1.609375l0 3.40625l-1.046875 0zm12.939453 -3.015625l1.125 0.296875q-0.359375 1.390625 -1.28125 2.125q-0.921875 0.734375 -2.265625 0.734375q-1.390625 0 -2.265625 -0.5625q-0.875 -0.5625 -1.328125 -1.625q-0.453125 -1.078125 -0.453125 -2.3125q0 -1.34375 0.515625 -2.34375q0.515625 -1.0 1.453125 -1.515625q0.953125 -0.515625 2.09375 -0.515625q1.28125 0 2.15625 0.65625q0.890625 0.65625 1.234375 1.84375l-1.125 0.265625q-0.296875 -0.9375 -0.875 -1.359375q-0.5625 -0.4375 -1.421875 -0.4375q-0.984375 0 -1.65625 0.484375q-0.65625 0.46875 -0.9375 1.265625q-0.265625 0.796875 -0.265625 1.65625q0 1.09375 0.3125 1.90625q0.328125 0.8125 1.0 1.21875q0.671875 0.40625 1.46875 0.40625q0.953125 0 1.609375 -0.546875q0.671875 -0.546875 0.90625 -1.640625zm2.0097656 -0.09375q0 -1.734375 0.953125 -2.5625q0.796875 -0.6875 1.953125 -0.6875q1.28125 0 2.09375 0.84375q0.828125 0.828125 0.828125 2.3125q0 1.203125 -0.359375 1.890625q-0.359375 0.6875 -1.0625 1.078125q-0.6875 0.375 -1.5 0.375q-1.296875 0 -2.109375 -0.828125q-0.796875 -0.84375 -0.796875 -2.421875zm1.078125 0q0 1.1875 0.515625 1.78125q0.53125 0.59375 1.3125 0.59375q0.796875 0 1.3125 -0.59375q0.515625 -0.59375 0.515625 -1.8125q0 -1.15625 -0.53125 -1.75q-0.515625 -0.59375 -1.296875 -0.59375q-0.78125 0 -1.3125 0.59375q-0.515625 0.578125 -0.515625 1.78125zm5.986328 3.109375l0 -6.21875l0.9375 0l0 0.875q0.296875 -0.46875 0.78125 -0.734375q0.484375 -0.28125 1.109375 -0.28125q0.6875 0 1.125 0.28125q0.453125 0.28125 0.625 0.796875q0.75 -1.078125 1.921875 -1.078125q0.9375 0 1.421875 0.515625q0.5 0.5 0.5 1.578125l0 4.265625l-1.046875 0l0 -3.921875q0 -0.625 -0.109375 -0.90625q-0.09375 -0.28125 -0.359375 -0.453125q-0.265625 -0.171875 -0.640625 -0.171875q-0.65625 0 -1.09375 0.4375q-0.421875 0.4375 -0.421875 1.40625l0 3.609375l-1.0625 0l0 -4.046875q0 -0.703125 -0.265625 -1.046875q-0.25 -0.359375 -0.828125 -0.359375q-0.453125 0 -0.828125 0.234375q-0.375 0.234375 -0.546875 0.6875q-0.171875 0.453125 -0.171875 1.296875l0 3.234375l-1.046875 0zm9.996094 0l0 -6.21875l0.9375 0l0 0.875q0.296875 -0.46875 0.78125 -0.734375q0.484375 -0.28125 1.109375 -0.28125q0.6875 0 1.125 0.28125q0.453125 0.28125 0.625 0.796875q0.75 -1.078125 1.921875 -1.078125q0.9375 0 1.421875 0.515625q0.5 0.5 0.5 1.578125l0 4.265625l-1.046875 0l0 -3.921875q0 -0.625 -0.109375 -0.90625q-0.09375 -0.28125 -0.359375 -0.453125q-0.265625 -0.171875 -0.640625 -0.171875q-0.65625 0 -1.09375 0.4375q-0.421875 0.4375 -0.421875 1.40625l0 3.609375l-1.0625 0l0 -4.046875q0 -0.703125 -0.265625 -1.046875q-0.25 -0.359375 -0.828125 -0.359375q-0.453125 0 -0.828125 0.234375q-0.375 0.234375 -0.546875 0.6875q-0.171875 0.453125 -0.171875 1.296875l0 3.234375l-1.046875 0zm14.246094 -2.0l1.09375 0.125q-0.25 0.953125 -0.953125 1.484375q-0.703125 0.53125 -1.78125 0.53125q-1.359375 0 -2.171875 -0.84375q-0.796875 -0.84375 -0.796875 -2.359375q0 -1.5625 0.8125 -2.421875q0.8125 -0.875 2.09375 -0.875q1.25 0 2.03125 0.84375q0.796875 0.84375 0.796875 2.390625q0 0.09375 0 0.28125l-4.640625 0q0.0625 1.03125 0.578125 1.578125q0.515625 0.53125 1.296875 0.53125q0.578125 0 0.984375 -0.296875q0.421875 -0.3125 0.65625 -0.96875zm-3.453125 -1.703125l3.46875 0q-0.0625 -0.796875 -0.390625 -1.1875q-0.515625 -0.609375 -1.3125 -0.609375q-0.734375 0 -1.234375 0.484375q-0.484375 0.484375 -0.53125 1.3125zm5.876953 3.703125l0 -6.21875l0.9375 0l0 0.875q0.6875 -1.015625 1.984375 -1.015625q0.5625 0 1.03125 0.203125q0.484375 0.203125 0.71875 0.53125q0.234375 0.328125 0.328125 0.765625q0.046875 0.296875 0.046875 1.03125l0 3.828125l-1.046875 0l0 -3.78125q0 -0.65625 -0.125 -0.96875q-0.125 -0.3125 -0.4375 -0.5q-0.3125 -0.203125 -0.734375 -0.203125q-0.671875 0 -1.171875 0.4375q-0.484375 0.421875 -0.484375 1.609375l0 3.40625l-1.046875 0zm8.970703 -0.9375l0.15625 0.921875q-0.453125 0.09375 -0.796875 0.09375q-0.578125 0 -0.890625 -0.171875q-0.3125 -0.1875 -0.453125 -0.484375q-0.125 -0.296875 -0.125 -1.25l0 -3.578125l-0.765625 0l0 -0.8125l0.765625 0l0 -1.546875l1.046875 -0.625l0 2.171875l1.0625 0l0 0.8125l-1.0625 0l0 3.640625q0 0.453125 0.046875 0.578125q0.0625 0.125 0.1875 0.203125q0.125 0.078125 0.359375 0.078125q0.1875 0 0.46875 -0.03125z" fill-rule="nonzero"/><path fill="#000000" d="m150.24648 297.49112l0 -8.59375l1.140625 0l0 7.578125l4.234375 0l0 1.015625l-5.375 0zm6.595703 -7.375l0 -1.21875l1.0625 0l0 1.21875l-1.0625 0zm0 7.375l0 -6.21875l1.0625 0l0 6.21875l-1.0625 0zm2.6660156 0l0 -6.21875l0.9375 0l0 0.875q0.6875 -1.015625 1.984375 -1.015625q0.5625 0 1.03125 0.203125q0.484375 0.203125 0.71875 0.53125q0.234375 0.328125 0.328125 0.765625q0.046875 0.296875 0.046875 1.03125l0 3.828125l-1.046875 0l0 -3.78125q0 -0.65625 -0.125 -0.96875q-0.125 -0.3125 -0.4375 -0.5q-0.3125 -0.203125 -0.734375 -0.203125q-0.671875 0 -1.171875 0.4375q-0.484375 0.421875 -0.484375 1.609375l0 3.40625l-1.046875 0zm10.923828 -2.0l1.09375 0.125q-0.25 0.953125 -0.953125 1.484375q-0.703125 0.53125 -1.78125 0.53125q-1.359375 0 -2.171875 -0.84375q-0.796875 -0.84375 -0.796875 -2.359375q0 -1.5625 0.8125 -2.421875q0.8125 -0.875 2.09375 -0.875q1.25 0 2.03125 0.84375q0.796875 0.84375 0.796875 2.390625q0 0.09375 0 0.28125l-4.640625 0q0.0625 1.03125 0.578125 1.578125q0.515625 0.53125 1.296875 0.53125q0.578125 0 0.984375 -0.296875q0.421875 -0.3125 0.65625 -0.96875zm-3.453125 -1.703125l3.46875 0q-0.0625 -0.796875 -0.390625 -1.1875q-0.515625 -0.609375 -1.3125 -0.609375q-0.734375 0 -1.234375 0.484375q-0.484375 0.484375 -0.53125 1.3125z" fill-rule="nonzero"/><path fill="#cfe2f3" d="m335.1404 285.97113l0 0c0 -32.110794 26.030945 -58.14174 58.141754 -58.14174l0 0c15.4201355 0 30.20871 6.125641 41.112396 17.029327c10.903687 10.903687 17.029327 25.692276 17.029327 41.11241l0 0c0 32.11078 -26.030945 58.141724 -58.141724 58.141724l0 0c-32.11081 0 -58.141754 -26.030945 -58.141754 -58.141724z" fill-rule="evenodd"/><path stroke="#000000" stroke-width="1.0" stroke-linejoin="round" stroke-linecap="butt" d="m335.1404 285.97113l0 0c0 -32.110794 26.030945 -58.14174 58.141754 -58.14174l0 0c15.4201355 0 30.20871 6.125641 41.112396 17.029327c10.903687 10.903687 17.029327 25.692276 17.029327 41.11241l0 0c0 32.11078 -26.030945 58.141724 -58.141724 58.141724l0 0c-32.11081 0 -58.141754 -26.030945 -58.141754 -58.141724z" fill-rule="evenodd"/><path fill="#000000" d="m363.40228 276.11612l0 -1.21875l1.0625 0l0 1.21875l-1.0625 0zm0 7.375l0 -6.21875l1.0625 0l0 6.21875l-1.0625 0zm2.6660156 0l0 -6.21875l0.9375 0l0 0.875q0.6875 -1.015625 1.984375 -1.015625q0.5625 0 1.03125 0.203125q0.484375 0.203125 0.71875 0.53125q0.234375 0.328125 0.328125 0.765625q0.046875 0.296875 0.046875 1.03125l0 3.828125l-1.046875 0l0 -3.78125q0 -0.65625 -0.125 -0.96875q-0.125 -0.3125 -0.4375 -0.5q-0.3125 -0.203125 -0.734375 -0.203125q-0.671875 0 -1.171875 0.4375q-0.484375 0.421875 -0.484375 1.609375l0 3.40625l-1.046875 0zm12.939453 -3.015625l1.125 0.296875q-0.359375 1.390625 -1.28125 2.125q-0.921875 0.734375 -2.265625 0.734375q-1.390625 0 -2.265625 -0.5625q-0.875 -0.5625 -1.328125 -1.625q-0.453125 -1.078125 -0.453125 -2.3125q0 -1.34375 0.515625 -2.34375q0.515625 -1.0 1.453125 -1.515625q0.953125 -0.515625 2.09375 -0.515625q1.28125 0 2.15625 0.65625q0.890625 0.65625 1.234375 1.84375l-1.125 0.265625q-0.296875 -0.9375 -0.875 -1.359375q-0.5625 -0.4375 -1.421875 -0.4375q-0.984375 0 -1.65625 0.484375q-0.65625 0.46875 -0.9375 1.265625q-0.265625 0.796875 -0.265625 1.65625q0 1.09375 0.3125 1.90625q0.328125 0.8125 1.0 1.21875q0.671875 0.40625 1.46875 0.40625q0.953125 0 1.609375 -0.546875q0.671875 -0.546875 0.90625 -1.640625zm2.0097656 -0.09375q0 -1.734375 0.953125 -2.5625q0.796875 -0.6875 1.953125 -0.6875q1.28125 0 2.09375 0.84375q0.828125 0.828125 0.828125 2.3125q0 1.203125 -0.359375 1.890625q-0.359375 0.6875 -1.0625 1.078125q-0.6875 0.375 -1.5 0.375q-1.296875 0 -2.109375 -0.828125q-0.796875 -0.84375 -0.796875 -2.421875zm1.078125 0q0 1.1875 0.515625 1.78125q0.53125 0.59375 1.3125 0.59375q0.796875 0 1.3125 -0.59375q0.515625 -0.59375 0.515625 -1.8125q0 -1.15625 -0.53125 -1.75q-0.515625 -0.59375 -1.296875 -0.59375q-0.78125 0 -1.3125 0.59375q-0.515625 0.578125 -0.515625 1.78125zm5.986328 3.109375l0 -6.21875l0.9375 0l0 0.875q0.296875 -0.46875 0.78125 -0.734375q0.484375 -0.28125 1.109375 -0.28125q0.6875 0 1.125 0.28125q0.453125 0.28125 0.625 0.796875q0.75 -1.078125 1.921875 -1.078125q0.9375 0 1.421875 0.515625q0.5 0.5 0.5 1.578125l0 4.265625l-1.046875 0l0 -3.921875q0 -0.625 -0.109375 -0.90625q-0.09375 -0.28125 -0.359375 -0.453125q-0.265625 -0.171875 -0.640625 -0.171875q-0.65625 0 -1.09375 0.4375q-0.421875 0.4375 -0.421875 1.40625l0 3.609375l-1.0625 0l0 -4.046875q0 -0.703125 -0.265625 -1.046875q-0.25 -0.359375 -0.828125 -0.359375q-0.453125 0 -0.828125 0.234375q-0.375 0.234375 -0.546875 0.6875q-0.171875 0.453125 -0.171875 1.296875l0 3.234375l-1.046875 0zm9.996094 0l0 -6.21875l0.9375 0l0 0.875q0.296875 -0.46875 0.78125 -0.734375q0.484375 -0.28125 1.109375 -0.28125q0.6875 0 1.125 0.28125q0.453125 0.28125 0.625 0.796875q0.75 -1.078125 1.921875 -1.078125q0.9375 0 1.421875 0.515625q0.5 0.5 0.5 1.578125l0 4.265625l-1.046875 0l0 -3.921875q0 -0.625 -0.109375 -0.90625q-0.09375 -0.28125 -0.359375 -0.453125q-0.265625 -0.171875 -0.640625 -0.171875q-0.65625 0 -1.09375 0.4375q-0.421875 0.4375 -0.421875 1.40625l0 3.609375l-1.0625 0l0 -4.046875q0 -0.703125 -0.265625 -1.046875q-0.25 -0.359375 -0.828125 -0.359375q-0.453125 0 -0.828125 0.234375q-0.375 0.234375 -0.546875 0.6875q-0.171875 0.453125 -0.171875 1.296875l0 3.234375l-1.046875 0zm14.246094 -2.0l1.09375 0.125q-0.25 0.953125 -0.953125 1.484375q-0.703125 0.53125 -1.78125 0.53125q-1.359375 0 -2.171875 -0.84375q-0.796875 -0.84375 -0.796875 -2.359375q0 -1.5625 0.8125 -2.421875q0.8125 -0.875 2.09375 -0.875q1.25 0 2.03125 0.84375q0.796875 0.84375 0.796875 2.390625q0 0.09375 0 0.28125l-4.640625 0q0.0625 1.03125 0.578125 1.578125q0.515625 0.53125 1.296875 0.53125q0.578125 0 0.984375 -0.296875q0.421875 -0.3125 0.65625 -0.96875zm-3.453125 -1.703125l3.46875 0q-0.0625 -0.796875 -0.390625 -1.1875q-0.515625 -0.609375 -1.3125 -0.609375q-0.734375 0 -1.234375 0.484375q-0.484375 0.484375 -0.53125 1.3125zm5.876953 3.703125l0 -6.21875l0.9375 0l0 0.875q0.6875 -1.015625 1.984375 -1.015625q0.5625 0 1.03125 0.203125q0.484375 0.203125 0.71875 0.53125q0.234375 0.328125 0.328125 0.765625q0.046875 0.296875 0.046875 1.03125l0 3.828125l-1.046875 0l0 -3.78125q0 -0.65625 -0.125 -0.96875q-0.125 -0.3125 -0.4375 -0.5q-0.3125 -0.203125 -0.734375 -0.203125q-0.671875 0 -1.171875 0.4375q-0.484375 0.421875 -0.484375 1.609375l0 3.40625l-1.046875 0zm8.970703 -0.9375l0.15625 0.921875q-0.453125 0.09375 -0.796875 0.09375q-0.578125 0 -0.890625 -0.171875q-0.3125 -0.1875 -0.453125 -0.484375q-0.125 -0.296875 -0.125 -1.25l0 -3.578125l-0.765625 0l0 -0.8125l0.765625 0l0 -1.546875l1.046875 -0.625l0 2.171875l1.0625 0l0 0.8125l-1.0625 0l0 3.640625q0 0.453125 0.046875 0.578125q0.0625 0.125 0.1875 0.203125q0.125 0.078125 0.359375 0.078125q0.1875 0 0.46875 -0.03125z" fill-rule="nonzero"/><path fill="#000000" d="m379.4853 297.49112l0 -8.59375l3.234375 0q0.984375 0 1.578125 0.265625q0.59375 0.265625 0.921875 0.8125q0.34375 0.53125 0.34375 1.125q0 0.546875 -0.296875 1.03125q-0.296875 0.484375 -0.90625 0.78125q0.78125 0.234375 1.1875 0.796875q0.421875 0.546875 0.421875 1.296875q0 0.59375 -0.25 1.125q-0.25 0.515625 -0.625 0.796875q-0.375 0.28125 -0.953125 0.421875q-0.5625 0.140625 -1.375 0.140625l-3.28125 0zm1.140625 -4.984375l1.859375 0q0.75 0 1.078125 -0.09375q0.4375 -0.125 0.65625 -0.421875q0.21875 -0.3125 0.21875 -0.765625q0 -0.421875 -0.203125 -0.75q-0.203125 -0.328125 -0.59375 -0.4375q-0.375 -0.125 -1.296875 -0.125l-1.71875 0l0 2.59375zm0 3.96875l2.140625 0q0.546875 0 0.765625 -0.046875q0.40625 -0.0625 0.65625 -0.21875q0.265625 -0.171875 0.4375 -0.484375q0.171875 -0.3125 0.171875 -0.71875q0 -0.484375 -0.25 -0.84375q-0.234375 -0.359375 -0.671875 -0.5q-0.4375 -0.140625 -1.265625 -0.140625l-1.984375 0l0 2.953125zm6.7539062 1.015625l0 -8.59375l1.0625 0l0 8.59375l-1.0625 0zm2.3066406 -3.109375q0 -1.734375 0.953125 -2.5625q0.796875 -0.6875 1.953125 -0.6875q1.28125 0 2.09375 0.84375q0.828125 0.828125 0.828125 2.3125q0 1.203125 -0.359375 1.890625q-0.359375 0.6875 -1.0625 1.078125q-0.6875 0.375 -1.5 0.375q-1.296875 0 -2.109375 -0.828125q-0.796875 -0.84375 -0.796875 -2.421875zm1.078125 0q0 1.1875 0.515625 1.78125q0.53125 0.59375 1.3125 0.59375q0.796875 0 1.3125 -0.59375q0.515625 -0.59375 0.515625 -1.8125q0 -1.15625 -0.53125 -1.75q-0.515625 -0.59375 -1.296875 -0.59375q-0.78125 0 -1.3125 0.59375q-0.515625 0.578125 -0.515625 1.78125zm10.048828 0.828125l1.03125 0.140625q-0.171875 1.0625 -0.875 1.671875q-0.703125 0.609375 -1.71875 0.609375q-1.28125 0 -2.0625 -0.828125q-0.765625 -0.84375 -0.765625 -2.40625q0 -1.0 0.328125 -1.75q0.34375 -0.765625 1.015625 -1.140625q0.6875 -0.375 1.5 -0.375q1.0 0 1.640625 0.515625q0.65625 0.5 0.84375 1.453125l-1.03125 0.15625q-0.140625 -0.625 -0.515625 -0.9375q-0.375 -0.328125 -0.90625 -0.328125q-0.796875 0 -1.296875 0.578125q-0.5 0.5625 -0.5 1.796875q0 1.265625 0.484375 1.828125q0.484375 0.5625 1.25 0.5625q0.625 0 1.03125 -0.375q0.421875 -0.375 0.546875 -1.171875zm1.9375 2.28125l0 -8.59375l1.0625 0l0 4.90625l2.484375 -2.53125l1.375 0l-2.390625 2.296875l2.625 3.921875l-1.296875 0l-2.0625 -3.1875l-0.734375 0.71875l0 2.46875l-1.0625 0z" fill-rule="nonzero"/><path fill="#cfe2f3" d="m218.85695 169.68767l0 0c0 -32.110794 26.030945 -58.14174 58.14174 -58.14174l0 0c15.4201355 0 30.20871 6.1256332 41.112427 17.029327c10.903687 10.903687 17.029297 25.69226 17.029297 41.11241l0 0c0 32.110794 -26.030945 58.141724 -58.141724 58.141724l0 0c-32.110794 0 -58.14174 -26.03093 -58.14174 -58.141724z" fill-rule="evenodd"/><path stroke="#000000" stroke-width="1.0" stroke-linejoin="round" stroke-linecap="butt" d="m218.85695 169.68767l0 0c0 -32.110794 26.030945 -58.14174 58.14174 -58.14174l0 0c15.4201355 0 30.20871 6.1256332 41.112427 17.029327c10.903687 10.903687 17.029297 25.69226 17.029297 41.11241l0 0c0 32.110794 -26.030945 58.141724 -58.141724 58.141724l0 0c-32.110794 0 -58.14174 -26.03093 -58.14174 -58.141724z" fill-rule="evenodd"/><path fill="#000000" d="m256.34732 172.06703l-0.328125 -4.546875l0 -1.90625l1.3125 0l0 1.90625l-0.3125 4.546875l-0.671875 0zm-0.28125 2.140625l0 -1.203125l1.21875 0l0 1.203125l-1.21875 0zm3.0527344 -7.375l0 -1.21875l1.0625 0l0 1.21875l-1.0625 0zm0 7.375l0 -6.21875l1.0625 0l0 6.21875l-1.0625 0zm2.6660156 0l0 -6.21875l0.9375 0l0 0.875q0.6875 -1.015625 1.984375 -1.015625q0.5625 0 1.03125 0.203125q0.484375 0.203125 0.71875 0.53125q0.234375 0.328125 0.328125 0.765625q0.046875 0.296875 0.046875 1.03125l0 3.828125l-1.046875 0l0 -3.78125q0 -0.65625 -0.125 -0.96875q-0.125 -0.3125 -0.4375 -0.5q-0.3125 -0.203125 -0.734375 -0.203125q-0.671875 0 -1.171875 0.4375q-0.484375 0.421875 -0.484375 1.609375l0 3.40625l-1.046875 0zm6.423828 -2.765625l1.0625 -0.09375q0.078125 0.65625 0.359375 1.0625q0.28125 0.40625 0.859375 0.671875q0.59375 0.25 1.328125 0.25q0.640625 0 1.140625 -0.1875q0.5 -0.203125 0.734375 -0.53125q0.25 -0.34375 0.25 -0.734375q0 -0.40625 -0.234375 -0.703125q-0.234375 -0.3125 -0.765625 -0.515625q-0.359375 -0.140625 -1.546875 -0.421875q-1.171875 -0.28125 -1.640625 -0.53125q-0.625 -0.328125 -0.921875 -0.796875q-0.296875 -0.484375 -0.296875 -1.078125q0 -0.640625 0.359375 -1.203125q0.375 -0.578125 1.078125 -0.859375q0.71875 -0.296875 1.578125 -0.296875q0.953125 0 1.6875 0.3125q0.734375 0.296875 1.125 0.90625q0.390625 0.59375 0.421875 1.34375l-1.09375 0.078125q-0.09375 -0.8125 -0.609375 -1.21875q-0.5 -0.421875 -1.484375 -0.421875q-1.03125 0 -1.5 0.375q-0.46875 0.375 -0.46875 0.90625q0 0.46875 0.328125 0.765625q0.328125 0.296875 1.703125 0.609375q1.390625 0.3125 1.90625 0.546875q0.75 0.359375 1.109375 0.890625q0.359375 0.515625 0.359375 1.21875q0 0.6875 -0.390625 1.296875q-0.390625 0.59375 -1.125 0.9375q-0.734375 0.328125 -1.65625 0.328125q-1.171875 0 -1.96875 -0.328125q-0.78125 -0.34375 -1.234375 -1.03125q-0.4375 -0.6875 -0.453125 -1.546875zm10.550781 1.828125l0.15625 0.921875q-0.453125 0.09375 -0.796875 0.09375q-0.578125 0 -0.890625 -0.171875q-0.3125 -0.1875 -0.453125 -0.484375q-0.125 -0.296875 -0.125 -1.25l0 -3.578125l-0.765625 0l0 -0.8125l0.765625 0l0 -1.546875l1.046875 -0.625l0 2.171875l1.0625 0l0 0.8125l-1.0625 0l0 3.640625q0 0.453125 0.046875 0.578125q0.0625 0.125 0.1875 0.203125q0.125 0.078125 0.359375 0.078125q0.1875 0 0.46875 -0.03125zm1.0214844 0.9375l0 -6.21875l0.953125 0l0 0.9375q0.359375 -0.65625 0.65625 -0.859375q0.3125 -0.21875 0.6875 -0.21875q0.53125 0 1.078125 0.328125l-0.359375 0.984375q-0.390625 -0.234375 -0.765625 -0.234375q-0.359375 0 -0.640625 0.21875q-0.265625 0.203125 -0.375 0.578125q-0.1875 0.5625 -0.1875 1.21875l0 3.265625l-1.046875 0zm4.0117188 -7.375l0 -1.21875l1.0625 0l0 1.21875l-1.0625 0zm0 7.375l0 -6.21875l1.0625 0l0 6.21875l-1.0625 0zm2.6660156 0l0 -6.21875l0.9375 0l0 0.875q0.6875 -1.015625 1.984375 -1.015625q0.5625 0 1.03125 0.203125q0.484375 0.203125 0.71875 0.53125q0.234375 0.328125 0.328125 0.765625q0.046875 0.296875 0.046875 1.03125l0 3.828125l-1.046875 0l0 -3.78125q0 -0.65625 -0.125 -0.96875q-0.125 -0.3125 -0.4375 -0.5q-0.3125 -0.203125 -0.734375 -0.203125q-0.671875 0 -1.171875 0.4375q-0.484375 0.421875 -0.484375 1.609375l0 3.40625l-1.046875 0zm6.470703 0.515625l1.03125 0.15625q0.0625 0.46875 0.359375 0.6875q0.390625 0.296875 1.0625 0.296875q0.734375 0 1.125 -0.296875q0.40625 -0.296875 0.546875 -0.8125q0.09375 -0.328125 0.078125 -1.359375q-0.6875 0.8125 -1.71875 0.8125q-1.28125 0 -1.984375 -0.921875q-0.703125 -0.9375 -0.703125 -2.21875q0 -0.890625 0.3125 -1.640625q0.328125 -0.765625 0.9375 -1.171875q0.609375 -0.40625 1.4375 -0.40625q1.109375 0 1.828125 0.890625l0 -0.75l0.96875 0l0 5.375q0 1.453125 -0.296875 2.0625q-0.296875 0.609375 -0.9375 0.953125q-0.640625 0.359375 -1.578125 0.359375q-1.109375 0 -1.796875 -0.5q-0.6875 -0.5 -0.671875 -1.515625zm0.875 -3.734375q0 1.21875 0.484375 1.78125q0.484375 0.5625 1.21875 0.5625q0.734375 0 1.21875 -0.5625q0.5 -0.5625 0.5 -1.75q0 -1.140625 -0.515625 -1.71875q-0.5 -0.578125 -1.21875 -0.578125q-0.703125 0 -1.203125 0.578125q-0.484375 0.5625 -0.484375 1.6875z" fill-rule="nonzero"/><path fill="#000000" fill-opacity="0.0" d="m318.1111 210.80008l34.04724 34.04724" fill-rule="evenodd"/><path stroke="#000000" stroke-width="1.0" stroke-linejoin="round" stroke-linecap="butt" d="m318.11108 210.80008l29.804596 29.804596" fill-rule="evenodd"/><path fill="#000000" stroke="#000000" stroke-width="1.0" stroke-linecap="butt" d="m346.74774 241.77263l4.376892 2.0409698l-2.040985 -4.376877z" fill-rule="evenodd"/><path fill="#000000" fill-opacity="0.0" d="m235.88628 210.80008l-34.04724 34.04724" fill-rule="evenodd"/><path stroke="#000000" stroke-width="1.0" stroke-linejoin="round" stroke-linecap="butt" d="m235.88628 210.80008l-29.804611 29.804596" fill-rule="evenodd"/><path fill="#000000" stroke="#000000" stroke-width="1.0" stroke-linecap="butt" d="m204.91373 239.43672l-2.0409698 4.376877l4.3768616 -2.0409698z" fill-rule="evenodd"/><path fill="#000000" fill-opacity="0.0" d="m335.1404 202.83202l48.0 0l0 42.015747l-48.0 0z" fill-rule="evenodd"/><path fill="#000000" d="m344.1404 229.98639l3.875 -13.8125l1.3125 0l-3.859375 13.8125l-1.328125 0zm5.761444 -11.140625l0.421875 -1.296875q1.453125 0.515625 2.109375 0.890625q-0.171875 -1.65625 -0.1875 -2.265625l1.328125 0q-0.03125 0.890625 -0.21875 2.25q0.9375 -0.46875 2.15625 -0.875l0.421875 1.296875q-1.15625 0.390625 -2.265625 0.515625q0.546875 0.484375 1.5625 1.71875l-1.09375 0.78125q-0.53125 -0.734375 -1.25 -1.96875q-0.671875 1.28125 -1.1875 1.96875l-1.078125 -0.78125q1.0625 -1.296875 1.515625 -1.71875q-1.171875 -0.234375 -2.234375 -0.515625z" fill-rule="nonzero"/><path fill="#000000" fill-opacity="0.0" d="m187.88583 195.6588l48.0 0l0 42.015747l-48.0 0z" fill-rule="evenodd"/><path fill="#000000" d="m196.88583 222.81317l3.875 -13.8125l1.3125 0l-3.859375 13.8125l-1.328125 0zm5.183304 0l3.875 -13.8125l1.3125 0l-3.859375 13.8125l-1.328125 0z" fill-rule="nonzero"/><path fill="#000000" fill-opacity="0.0" d="m180.16405 30.955381l193.6693 0l0 42.015747l-193.6693 0z" fill-rule="evenodd"/><path fill="#000000" d="m248.12775 53.578503l1.65625 -0.140625q0.125 1.0 0.546875 1.640625q0.4375 0.640625 1.34375 1.046875q0.921875 0.390625 2.0625 0.390625q1.0 0 1.78125 -0.296875q0.78125 -0.296875 1.15625 -0.8125q0.375 -0.53125 0.375 -1.15625q0 -0.625 -0.375 -1.09375q-0.359375 -0.46875 -1.1875 -0.796875q-0.546875 -0.203125 -2.390625 -0.640625q-1.828125 -0.453125 -2.5625 -0.84375q-0.96875 -0.5 -1.4375 -1.234375q-0.46875 -0.75 -0.46875 -1.671875q0 -1.0 0.578125 -1.875q0.578125 -0.890625 1.671875 -1.34375q1.109375 -0.453125 2.453125 -0.453125q1.484375 0 2.609375 0.484375q1.140625 0.46875 1.75 1.40625q0.609375 0.921875 0.65625 2.09375l-1.6875 0.125q-0.140625 -1.265625 -0.9375 -1.90625q-0.78125 -0.65625 -2.3125 -0.65625q-1.609375 0 -2.34375 0.59375q-0.734375 0.59375 -0.734375 1.421875q0 0.71875 0.53125 1.171875q0.5 0.46875 2.65625 0.96875q2.15625 0.484375 2.953125 0.84375q1.171875 0.53125 1.71875 1.359375q0.5625 0.828125 0.5625 1.90625q0 1.0625 -0.609375 2.015625q-0.609375 0.9375 -1.75 1.46875q-1.140625 0.515625 -2.578125 0.515625q-1.8125 0 -3.046875 -0.53125q-1.21875 -0.53125 -1.921875 -1.59375q-0.6875 -1.0625 -0.71875 -2.40625zm16.443573 4.296875l0 -11.78125l-4.40625 0l0 -1.578125l10.578125 0l0 1.578125l-4.40625 0l0 11.78125l-1.765625 0zm5.135559 0l5.125 -13.359375l1.90625 0l5.46875 13.359375l-2.015625 0l-1.546875 -4.046875l-5.59375 0l-1.46875 4.046875l-1.875 0zm3.859375 -5.484375l4.53125 0l-1.40625 -3.703125q-0.625 -1.6875 -0.9375 -2.765625q-0.265625 1.28125 -0.71875 2.546875l-1.46875 3.921875zm10.084198 5.484375l0 -13.359375l5.921875 0q1.78125 0 2.703125 0.359375q0.9375 0.359375 1.484375 1.28125q0.5625 0.90625 0.5625 2.015625q0 1.40625 -0.921875 2.390625q-0.921875 0.96875 -2.84375 1.234375q0.703125 0.34375 1.078125 0.671875q0.765625 0.703125 1.453125 1.765625l2.328125 3.640625l-2.21875 0l-1.765625 -2.78125q-0.78125 -1.203125 -1.28125 -1.828125q-0.5 -0.640625 -0.90625 -0.890625q-0.390625 -0.265625 -0.796875 -0.359375q-0.296875 -0.078125 -0.984375 -0.078125l-2.046875 0l0 5.9375l-1.765625 0zm1.765625 -7.453125l3.796875 0q1.21875 0 1.890625 -0.25q0.6875 -0.265625 1.046875 -0.8125q0.359375 -0.546875 0.359375 -1.1875q0 -0.953125 -0.6875 -1.5625q-0.6875 -0.609375 -2.1875 -0.609375l-4.21875 0l0 4.421875zm14.745087 7.453125l0 -11.78125l-4.40625 0l0 -1.578125l10.578125 0l0 1.578125l-4.40625 0l0 11.78125l-1.765625 0z" fill-rule="nonzero"/><path fill="#000000" fill-opacity="0.0" d="m276.9987 72.97113l0 38.582672" fill-rule="evenodd"/><path stroke="#000000" stroke-width="1.0" stroke-linejoin="round" stroke-linecap="butt" d="m276.9987 72.97113l0 32.582672" fill-rule="evenodd"/><path fill="#000000" stroke="#000000" stroke-width="1.0" stroke-linecap="butt" d="m275.34695 105.5538l1.6517334 4.538101l1.6517334 -4.538101z" fill-rule="evenodd"/><path fill="#000000" fill-opacity="0.0" d="m180.16405 360.3622l193.6693 0l0 42.015747l-193.6693 0z" fill-rule="evenodd"/><path fill="#000000" d="m215.67267 387.2822l0 -13.359375l1.765625 0l0 13.359375l-1.765625 0zm11.136429 -5.234375l0 -1.578125l5.65625 0l0 4.953125q-1.296875 1.046875 -2.6875 1.578125q-1.375 0.515625 -2.84375 0.515625q-1.96875 0 -3.578125 -0.84375q-1.609375 -0.84375 -2.421875 -2.4375q-0.8125 -1.59375 -0.8125 -3.5625q0 -1.953125 0.8125 -3.640625q0.8125 -1.6875 2.34375 -2.5q1.53125 -0.828125 3.515625 -0.828125q1.453125 0 2.625 0.46875q1.171875 0.46875 1.828125 1.3125q0.671875 0.828125 1.015625 2.171875l-1.59375 0.4375q-0.296875 -1.015625 -0.75 -1.59375q-0.4375 -0.59375 -1.265625 -0.9375q-0.828125 -0.34375 -1.84375 -0.34375q-1.203125 0 -2.09375 0.375q-0.890625 0.359375 -1.4375 0.96875q-0.53125 0.59375 -0.828125 1.3125q-0.515625 1.234375 -0.515625 2.6875q0 1.78125 0.609375 2.984375q0.625 1.203125 1.796875 1.796875q1.171875 0.578125 2.5 0.578125q1.140625 0 2.234375 -0.4375q1.09375 -0.453125 1.65625 -0.953125l0 -2.484375l-3.921875 0zm8.245804 5.234375l0 -13.359375l1.8125 0l7.015625 10.484375l0 -10.484375l1.6875 0l0 13.359375l-1.8125 0l-7.015625 -10.5l0 10.5l-1.6875 0zm12.957321 -6.5q0 -3.328125 1.78125 -5.203125q1.78125 -1.890625 4.609375 -1.890625q1.8437347 0 3.3281097 0.890625q1.484375 0.875 2.265625 2.46875q0.78125 1.578125 0.78125 3.578125q0 2.03125 -0.828125 3.640625q-0.8125 1.59375 -2.3125 2.421875q-1.5 0.828125 -3.2499847 0.828125q-1.875 0 -3.359375 -0.90625q-1.484375 -0.921875 -2.25 -2.5q-0.765625 -1.578125 -0.765625 -3.328125zm1.8125 0.015625q0 2.421875 1.296875 3.8125q1.296875 1.390625 3.265625 1.390625q1.9999847 0 3.2812347 -1.40625q1.28125 -1.40625 1.28125 -3.984375q0 -1.625 -0.546875 -2.84375q-0.546875 -1.21875 -1.609375 -1.875q-1.0624847 -0.671875 -2.3749847 -0.671875q-1.890625 0 -3.25 1.296875q-1.34375 1.28125 -1.34375 4.28125zm13.261429 6.484375l0 -13.359375l5.921875 0q1.78125 0 2.703125 0.359375q0.9375 0.359375 1.484375 1.28125q0.5625 0.90625 0.5625 2.015625q0 1.40625 -0.921875 2.390625q-0.921875 0.96875 -2.84375 1.234375q0.703125 0.34375 1.078125 0.671875q0.765625 0.703125 1.453125 1.765625l2.328125 3.640625l-2.21875 0l-1.765625 -2.78125q-0.78125 -1.203125 -1.28125 -1.828125q-0.5 -0.640625 -0.90625 -0.890625q-0.390625 -0.265625 -0.796875 -0.359375q-0.296875 -0.078125 -0.984375 -0.078125l-2.046875 0l0 5.9375l-1.765625 0zm1.765625 -7.453125l3.796875 0q1.21875 0 1.890625 -0.25q0.6875 -0.265625 1.046875 -0.8125q0.359375 -0.546875 0.359375 -1.1875q0 -0.953125 -0.6875 -1.5625q-0.6875 -0.609375 -2.1875 -0.609375l-4.21875 0l0 4.421875zm11.707306 7.453125l0 -13.359375l9.65625 0l0 1.578125l-7.875 0l0 4.09375l7.375 0l0 1.5625l-7.375 0l0 4.546875l8.1875 0l0 1.578125l-9.96875 0zm20.664642 0l0 -11.78125l-4.40625 0l0 -1.578125l10.578125 0l0 1.578125l-4.40625 0l0 11.78125l-1.765625 0zm8.020996 0l0 -13.359375l9.65625 0l0 1.578125l-7.875 0l0 4.09375l7.375 0l0 1.5625l-7.375 0l0 4.546875l8.1875 0l0 1.578125l-9.96875 0zm11.052948 0l5.171875 -6.953125l-4.5625 -6.40625l2.109375 0l2.421875 3.4375q0.75 1.0625 1.078125 1.625q0.4375 -0.71875 1.046875 -1.515625l2.6875 -3.546875l1.921875 0l-4.6875 6.296875l5.0625 7.0625l-2.1875 0l-3.359375 -4.765625q-0.28125 -0.40625 -0.59375 -0.890625q-0.4375 0.734375 -0.625 1.0l-3.359375 4.65625l-2.125 0zm17.209198 0l0 -11.78125l-4.40625 0l0 -1.578125l10.578125 0l0 1.578125l-4.40625 0l0 11.78125l-1.765625 0z" fill-rule="nonzero"/><path fill="#000000" fill-opacity="0.0" d="m201.82764 327.08353l75.18109 33.29135" fill-rule="evenodd"/><path stroke="#000000" stroke-width="1.0" stroke-linejoin="round" stroke-linecap="butt" d="m201.82764 327.08353l69.694916 30.861969" fill-rule="evenodd"/><path fill="#000000" stroke="#000000" stroke-width="1.0" stroke-linecap="butt" d="m270.8538 359.4558l4.8182373 0.32714844l-3.4806824 -3.3477173z" fill-rule="evenodd"/><path fill="#000000" fill-opacity="0.0" d="m352.16974 327.08353l-75.18109 33.29135" fill-rule="evenodd"/><path stroke="#000000" stroke-width="1.0" stroke-linejoin="round" stroke-linecap="butt" d="m352.16974 327.08353l-69.694916 30.861969" fill-rule="evenodd"/><path fill="#000000" stroke="#000000" stroke-width="1.0" stroke-linecap="butt" d="m281.80603 356.43524l-3.4806824 3.3477173l4.8182373 -0.32714844z" fill-rule="evenodd"/><path fill="#000000" fill-opacity="0.0" d="m451.4239 285.97113c12.499664 0 32.220917 -51.778732 24.99936 -99.712585c-7.2215576 -47.933838 -41.385925 -92.022804 -79.1611 -99.71257c-37.775146 -7.689766 -79.1611 21.01966 -79.1611 42.03932" fill-rule="evenodd"/><path stroke="#000000" stroke-width="1.0" stroke-linejoin="round" stroke-linecap="butt" d="m451.4239 285.97113c12.499664 0 32.220917 -51.778732 24.99939 -99.712585c-7.221588 -47.933838 -41.385956 -92.022804 -79.16113 -99.71257c-18.887543 -3.8448868 -38.677826 1.4100342 -53.746246 10.253624c-7.5341797 4.4217987 -13.887878 9.740768 -18.358063 15.268021c-2.235077 2.7636108 -3.9992676 5.5793076 -5.204712 8.360962c-0.60272217 1.390831 -1.0657043 2.77314 -1.3780823 4.1361847c-0.039031982 0.17037964 -0.07571411 0.34046173 -0.11001587 0.51020813l-0.018981934 0.1006546" fill-rule="evenodd"/><path fill="#000000" stroke="#000000" stroke-width="1.0" stroke-linecap="butt" d="m318.44604 125.17562l-1.0056763 -1.2320786l0.8078613 3.1872864l1.4299011 -2.9608688z" fill-rule="evenodd"/><path fill="#000000" fill-opacity="0.0" d="m102.573494 285.97113c-12.499687 0 -32.220932 -51.778732 -24.999367 -99.712585c7.2215652 -47.933838 41.38594 -92.022804 79.1611 -99.71257c37.77516 -7.689766 79.1611 21.01966 79.1611 42.03932" fill-rule="evenodd"/><path stroke="#000000" stroke-width="1.0" stroke-linejoin="round" stroke-linecap="butt" d="m102.573494 285.97113c-12.499687 0 -32.220932 -51.778732 -24.999367 -99.712585c7.2215652 -47.933838 41.38594 -92.022804 79.1611 -99.71257c18.887573 -3.8448868 38.67784 1.4100342 53.74623 10.253624c7.5341797 4.4217987 13.887894 9.740768 18.358063 15.268021c2.2350922 2.7636108 3.9992828 5.5793076 5.204727 8.360962c0.6027069 1.390831 1.0657196 2.77314 1.3780823 4.1361847c0.039031982 0.17037964 0.07571411 0.34046173 0.11003113 0.51020813l0.018966675 0.1006546" fill-rule="evenodd"/><path fill="#000000" stroke="#000000" stroke-width="1.0" stroke-linecap="butt" d="m235.55133 125.17562l-1.2320862 -1.005661l1.4299164 2.9608688l0.8078308 -3.1872864z" fill-rule="evenodd"/><path fill="#000000" fill-opacity="0.0" d="m238.10892 315.67453l75.18112 0l0 42.015747l-75.18112 0z" fill-rule="evenodd"/><path fill="#000000" d="m255.1505 342.59454l0 -11.78125l-4.40625 0l0 -1.578125l10.57814 0l0 1.578125l-4.40625 0l0 11.78125l-1.7656403 0zm8.020981 0l0 -13.359375l5.921875 0q1.78125 0 2.703125 0.359375q0.9375 0.359375 1.484375 1.28125q0.5625 0.90625 0.5625 2.015625q0 1.40625 -0.921875 2.390625q-0.921875 0.96875 -2.84375 1.234375q0.703125 0.34375 1.078125 0.671875q0.765625 0.703125 1.453125 1.765625l2.328125 3.640625l-2.21875 0l-1.765625 -2.78125q-0.78125 -1.203125 -1.28125 -1.828125q-0.5 -0.640625 -0.90625 -0.890625q-0.390625 -0.265625 -0.796875 -0.359375q-0.296875 -0.078125 -0.984375 -0.078125l-2.046875 0l0 5.9375l-1.765625 0zm1.765625 -7.453125l3.796875 0q1.21875 0 1.890625 -0.25q0.6875 -0.265625 1.046875 -0.8125q0.359375 -0.546875 0.359375 -1.1875q0 -0.953125 -0.6875 -1.5625q-0.6875 -0.609375 -2.1875 -0.609375l-4.21875 0l0 4.421875zm20.441711 -5.90625l1.765625 0l0 7.71875q0 2.015625 -0.453125 3.203125q-0.453125 1.1875 -1.640625 1.9375q-1.1875 0.734375 -3.125 0.734375q-1.875 0 -3.078125 -0.640625q-1.1875 -0.65625 -1.703125 -1.875q-0.5 -1.234375 -0.5 -3.359375l0 -7.71875l1.765625 0l0 7.71875q0 1.734375 0.3125 2.5625q0.328125 0.8125 1.109375 1.265625q0.796875 0.453125 1.9375 0.453125q1.953125 0 2.78125 -0.890625q0.828125 -0.890625 0.828125 -3.390625l0 -7.71875zm4.738556 13.359375l0 -13.359375l9.65625 0l0 1.578125l-7.875 0l0 4.09375l7.375 0l0 1.5625l-7.375 0l0 4.546875l8.1875 0l0 1.578125l-9.96875 0z" fill-rule="nonzero"/><path fill="#000000" fill-opacity="0.0" d="m451.4134 195.6588l85.7323 0l0 42.015747l-85.7323 0z" fill-rule="evenodd"/><path fill="#000000" d="m488.63586 211.67255l0.421875 -1.296875q1.453125 0.515625 2.109375 0.890625q-0.171875 -1.65625 -0.1875 -2.265625l1.328125 0q-0.03125 0.890625 -0.21875 2.25q0.9375 -0.46875 2.15625 -0.875l0.421875 1.296875q-1.15625 0.390625 -2.265625 0.515625q0.546875 0.484375 1.5625 1.71875l-1.09375 0.78125q-0.53125 -0.734375 -1.25 -1.96875q-0.671875 1.28125 -1.1875 1.96875l-1.078125 -0.78125q1.0625 -1.296875 1.515625 -1.71875q-1.171875 -0.234375 -2.234375 -0.515625zm6.6821594 11.140625l3.875 -13.8125l1.3125 0l-3.859375 13.8125l-1.328125 0z" fill-rule="nonzero"/><path fill="#000000" fill-opacity="0.0" d="m40.631233 195.6588l48.0 0l0 42.015747l-48.0 0z" fill-rule="evenodd"/><path fill="#000000" d="m53.506233 222.81317l-3.875 -13.8125l1.328125 0l3.859375 13.8125l-1.3125 0zm2.5426788 -0.234375l0 -9.671875l1.46875 0l0 1.375q1.0625 -1.59375 3.078125 -1.59375q0.875 0 1.609375 0.3125q0.734375 0.3125 1.09375 0.828125q0.375 0.5 0.515625 1.203125q0.09375 0.453125 0.09375 1.59375l0 5.953125l-1.640625 0l0 -5.890625q0 -1.0 -0.203125 -1.484375q-0.1875 -0.5 -0.671875 -0.796875q-0.484375 -0.296875 -1.140625 -0.296875q-1.046875 0 -1.8125 0.671875q-0.75 0.65625 -0.75 2.515625l0 5.28125l-1.640625 0z" fill-rule="nonzero"/></g></svg>